<?xml version="1.0" encoding="UTF-8" standalone="no"?>
<!DOCTYPE svg PUBLIC "-//W3C//DTD SVG 1.1//EN"
 "http://www.w3.org/Graphics/SVG/1.1/DTD/svg11.dtd">
<!-- Generated by graphviz version 2.40.1 (20161225.0304)
 -->
<!-- Title: %0 Pages: 1 -->
<svg width="406pt" height="289pt"
 viewBox="0.00 0.00 405.70 289.02" xmlns="http://www.w3.org/2000/svg" xmlns:xlink="http://www.w3.org/1999/xlink">
<g id="graph0" class="graph" transform="scale(1 1) rotate(0) translate(4 285.0174)">
<title>%0</title>
<polygon fill="#ffffff" stroke="transparent" points="-4,4 -4,-285.0174 401.6984,-285.0174 401.6984,4 -4,4"/>
<!-- a -->
<g id="node1" class="node">
<title>a</title>
<polygon fill="#ffa500" stroke="#ffa500" points="276.5012,-258.8087 247.428,-281.2281 189.2816,-281.2281 160.2084,-258.8087 189.2816,-236.3893 247.428,-236.3893 276.5012,-258.8087"/>
<text text-anchor="middle" x="218.3548" y="-254.0087" font-family="Arial Black" font-size="16.00" fill="#000000">Tarea 2</text>
</g>
<!-- b -->
<g id="node2" class="node">
<title>b</title>
<polygon fill="none" stroke="#0000ff" points="0,-164.1 0,-200.1 228.7096,-200.1 228.7096,-164.1 0,-164.1"/>
<text text-anchor="middle" x="114.3548" y="-178.5" font-family="Arial" font-size="12.00" fill="#000000">Lenguajes Formales y de Programacion</text>
</g>
<!-- a&#45;&gt;b -->
<g id="edge1" class="edge">
<title>a&#45;&gt;b</title>
<path fill="none" stroke="#000000" d="M188.5526,-236.8271C175.6523,-227.312 160.5082,-216.142 147.2772,-206.383"/>
<polygon fill="#000000" stroke="#000000" points="149.0268,-203.3245 138.9015,-200.2053 144.8717,-208.9579 149.0268,-203.3245"/>
</g>
<!-- c -->
<g id="node3" class="node">
<title>c</title>
<polygon fill="none" stroke="#00ff00" points="247.0112,-164.1 247.0112,-200.1 397.6984,-200.1 397.6984,-164.1 247.0112,-164.1"/>
<text text-anchor="middle" x="276.3436" y="-178.5" font-family="Arial" font-size="12.00" fill="#000000">Nombre</text>
<polyline fill="none" stroke="#00ff00" points="305.676,-164.1 305.676,-200.1 "/>
<text text-anchor="middle" x="351.6872" y="-178.5" font-family="Arial" font-size="12.00" fill="#000000">Josue Chavez</text>
</g>
<!-- a&#45;&gt;c -->
<g id="edge3" class="edge">
<title>a&#45;&gt;c</title>
<path fill="none" stroke="#000000" d="M248.157,-236.8271C261.0573,-227.312 276.2014,-216.142 289.4324,-206.383"/>
<polygon fill="#000000" stroke="#000000" points="291.8379,-208.9579 297.8081,-200.2053 287.6828,-203.3245 291.8379,-208.9579"/>
</g>
<!-- d -->
<g id="node4" class="node">
<title>d</title>
<ellipse fill="#ffff00" stroke="#ffff00" cx="114.3548" cy="-104.7" rx="49.3009" ry="18"/>
<text text-anchor="middle" x="114.3548" y="-101.1" font-family="Arial" font-size="12.00" fill="#000000">Seccion: B&#45;</text>
</g>
<!-- b&#45;&gt;d -->
<g id="edge2" class="edge">
<title>b&#45;&gt;d</title>
<path fill="none" stroke="#000000" d="M114.3548,-163.7573C114.3548,-154.6 114.3548,-143.3169 114.3548,-133.0748"/>
<polygon fill="#000000" stroke="#000000" points="117.8549,-132.911 114.3548,-122.9111 110.8549,-132.9111 117.8549,-132.911"/>
</g>
<!-- e -->
<g id="node5" class="node">
<title>e</title>
<polygon fill="#c0c0c0" stroke="#c0c0c0" points="284.3362,-82.3 284.3362,-127.1 360.3734,-127.1 360.3734,-82.3 284.3362,-82.3"/>
<text text-anchor="middle" x="322.3548" y="-112.3" font-family="Arial" font-size="12.00" fill="#000000">Carnet:</text>
<polyline fill="none" stroke="#c0c0c0" points="284.3362,-104.7 360.3734,-104.7 "/>
<text text-anchor="middle" x="322.3548" y="-89.9" font-family="Arial" font-size="12.00" fill="#000000">202100033</text>
</g>
<!-- c&#45;&gt;e -->
<g id="edge4" class="edge">
<title>c&#45;&gt;e</title>
<path fill="none" stroke="#000000" d="M322.3548,-163.7573C322.3548,-155.9174 322.3548,-146.5193 322.3548,-137.5503"/>
<polygon fill="#000000" stroke="#000000" points="325.8549,-137.3376 322.3548,-127.3377 318.8549,-137.3377 325.8549,-137.3376"/>
</g>
<!-- f -->
<g id="node6" class="node">
<title>f</title>
<polygon fill="#ff0000" stroke="#ff0000" points="255.2572,-.5 255.2572,-45.3 389.4524,-45.3 389.4524,-.5 255.2572,-.5"/>
<text text-anchor="middle" x="322.3548" y="-30.5" font-family="Arial" font-size="12.00" fill="#000000">Correo:</text>
<polyline fill="none" stroke="#ff0000" points="255.2572,-22.9 389.4524,-22.9 "/>
<text text-anchor="middle" x="322.3548" y="-8.1" font-family="Arial" font-size="12.00" fill="#000000">chavez23@gmail.com</text>
</g>
<!-- e&#45;&gt;f -->
<g id="edge5" class="edge">
<title>e&#45;&gt;f</title>
<path fill="none" stroke="#000000" d="M322.3548,-81.9141C322.3548,-73.7595 322.3548,-64.4009 322.3548,-55.5753"/>
<polygon fill="#000000" stroke="#000000" points="325.8549,-55.5636 322.3548,-45.5637 318.8549,-55.5637 325.8549,-55.5636"/>
</g>
</g>
</svg>
